<svg viewBox="0 0 115 115" class="" role="presentation" focusable="false" xmlns:svg="http://www.w3.org/2000/svg" xmlns:xlink="http://www.w3.org/1999/xlink" id="FxSymbol0-094" data-type="1"><g><title></title><title>New Redis logo</title><path d="M0 0h115v115H0z" class="msportalfx-svg-c19" fill="#0072c6"></path><path d="M89.44 32.58v-.2c0-3.09-6.87-5.59-15.33-5.59s-15.34 2.7-15.34 5.79v32.1c0 3.09 6.86 5.6 15.33 5.6h.21c8.37 0 15.12-2.52 15.12-5.59V32.58z" class="msportalfx-svg-c01" fill="#ffffff"></path><path d="M86.69 32.6c0 2-5.66 3.56-12.64 3.56s-12.66-1.59-12.66-3.56S67.06 29 74.05 29s12.64 1.6 12.64 3.57" class="msportalfx-svg-c19" fill="#0072c6"></path><path d="M56.22 32.58v-.2c0-3.09-6.87-5.59-15.34-5.59s-15.33 2.7-15.33 5.79v32.1c0 3.09 6.86 5.6 15.33 5.6h.21c8.37 0 15.12-2.52 15.12-5.59V32.58z" class="msportalfx-svg-c01" fill="#ffffff"></path><path d="M53.47 32.6c0 2-5.66 3.56-12.65 3.56s-12.65-1.59-12.65-3.56S33.84 29 40.82 29s12.65 1.6 12.65 3.57m21.92 19.82c0-5.11-10.93-7.67-17.89-7.67s-17.89 2.56-17.89 7.67v32.74c0 5.6 9.27 8.15 17.89 8.15h2.77v-.08c7.69-.5 15.12-3.07 15.12-8.06z" class="msportalfx-svg-c19" fill="#0072c6"></path><path d="M69.72 52.8c0 1.91-5.47 3.45-12.22 3.45s-12.22-1.54-12.22-3.45 5.47-3.44 12.22-3.44 12.22 1.54 12.22 3.44" class="msportalfx-svg-c19" fill="#0072c6"></path><path d="M72.83 53.07v-.2c0-3.09-6.87-5.59-15.34-5.59S42.16 50 42.16 53.07v32.1c0 3.09 6.86 5.6 15.33 5.6h.21c8.37 0 15.12-2.52 15.12-5.59V53.07z" class="msportalfx-svg-c01" fill="#ffffff"></path><path d="M70.08 53.09c0 2-5.66 3.56-12.65 3.56s-12.65-1.59-12.65-3.56 5.67-3.57 12.65-3.57 12.65 1.6 12.65 3.57" class="msportalfx-svg-c19" fill="#0072c6"></path></g><defs>
</defs>
</svg>