<svg viewBox="0 0 50 50" class="fxs-portal-svg" role="presentation" focusable="false" xmlns:svg="http://www.w3.org/2000/svg" xmlns:xlink="http://www.w3.org/1999/xlink" id="FxSymbol0-05d" data-type="1"><g><title></title><path d="M37.8 13.1l-3.3-3.3-10.7 10.8 10.7 10.8 3.3-3.1-7.3-7.4zm-25.6 9.1l7.3 7.3-7.3 7.4 3.3 3.3 10.7-10.8-10.7-10.8z" class="msportalfx-svg-c13" fill="#b8d432"></path><path d="M25 0C11.1 0 0 11.4 0 25c0 13.9 11.4 25 25 25s25-11.4 25-25S38.9 0 25 0zm0 3.3C37 3.3 46.7 13 46.7 25S36.9 46.7 25 46.7 3.3 36.9 3.3 25 13 3.3 25 3.3z" class="msportalfx-svg-c15" fill="#59b4d9"></path></g><defs>
</defs>
</svg>