<svg viewBox="0 0 50 50" class="" role="presentation" focusable="false" xmlns:svg="http://www.w3.org/2000/svg" xmlns:xlink="http://www.w3.org/1999/xlink" id="FxSymbol0-03a"><g><title></title><path d="M3 0h40.205v50H3z" class="msportalfx-svg-c14" fill="#7fba00"></path><path d="M19.19 4.915h18.921v11.888H19.19z"></path><path d="M43.205 3.846h4.501v8.577h-4.501zm0 12.238h4.501v22.825h-4.501z" class="msportalfx-svg-c11" fill="#fcd116"></path><path d="M20.809 31.718h3.243v13.391h-3.243zm-5.244 0h3.243v13.391h-3.243z"></path><path opacity=".2" d="M17.636 37.365h-6.144V11.908h8.242v2.098H13.59v21.261h4.046z"></path><path opacity=".2" d="M15.538 42.61H7.296V7.713h13.487v2.098H9.394v30.701h6.144zm17.582-2.466h-6.062v-17.31h4.74v-7.799h2.098v9.897h-4.74v13.114h3.964z"></path><path d="M23.003 24.11a2.431 2.431 0 0 1-4.862 0 2.43 2.43 0 1 1 4.862 0zm9.843 8.233h4.322v12.365h-4.322z" class="msportalfx-svg-c02" fill="#e5e5e5"></path></g></svg>