<svg viewBox="0 0 50 50" class="" role="presentation" focusable="false" xmlns:svg="http://www.w3.org/2000/svg" xmlns:xlink="http://www.w3.org/1999/xlink" id="FxSymbol0-024"><g><title></title><path d="M0 45.1c0 1 .8 1.9 1.8 1.9h46.3c1 0 1.9-.8 1.9-1.9V12H0v33.1z" class="msportalfx-svg-c03" fill="#a0a1a2"></path><path d="M48.1 4.1H1.8C.8 4.1 0 5 0 6v6h50V6c0-1-.8-1.6-1.9-1.6" class="msportalfx-svg-c04" fill="#7a7a7a"></path><path d="M4 25.5h42v7H4z" class="msportalfx-svg-c13" fill="#b8d432"></path><path d="M4 15h42v7H4z" class="msportalfx-svg-c01" fill="#ffffff"></path><path d="M4 36h42v7H4z" class="msportalfx-svg-c13" fill="#b8d432"></path><path opacity=".2" d="M2 4C.9 4 0 4.9 0 6v38.6c0 1.1.9 2 2 2h2.2L43.6 4H2z" class="msportalfx-svg-c01" fill="#ffffff"></path></g></svg>