<svg viewBox="0 0 50 50" class="fxs-portal-svg" role="presentation" focusable="false" xmlns:svg="http://www.w3.org/2000/svg" xmlns:xlink="http://www.w3.org/1999/xlink" id="FxSymbol0-0ce"><g><title></title><path d="M50 37.198c0 5.001-11.194 9.054-25 9.054S0 42.199 0 37.198v-4.88h50v4.88z" class="msportalfx-svg-c14" fill="#7fba00"></path><path d="M50 32.318c0 5.001-11.194 9.054-25 9.054S0 37.319 0 32.318c0-5 11.193-9.054 25-9.054s25 4.054 25 9.054" class="msportalfx-svg-c13" fill="#b8d432"></path><path d="M33.013 31.797c0 1.33-3.588 2.407-8.014 2.407s-8.015-1.077-8.015-2.407 3.589-2.407 8.015-2.407 8.014 1.078 8.014 2.407" class="msportalfx-svg-c14" fill="#7fba00"></path><path opacity=".25" d="M43.071 26.115c-3.502-1.327-8.104-2.269-13.279-2.633l-3.244 6.004c1.596.094 3.023.329 4.127.662l12.396-4.033zM5.902 38.208c3.601 1.543 8.598 2.643 14.288 3.045l3.793-7.02c-1.579-.06-3.014-.257-4.168-.552L5.902 38.208z" class="msportalfx-svg-c01" fill="#ffffff"></path><path d="M50 17.682c0 5.001-11.194 9.054-25 9.054S0 22.682 0 17.682v-4.88h50v4.88z" class="msportalfx-svg-c19" fill="#0072c6"></path><path d="M50 12.802c0 5.001-11.194 9.054-25 9.054S0 17.802 0 12.802s11.193-9.054 25-9.054 25 4.053 25 9.054" class="msportalfx-svg-c15" fill="#59b4d9"></path><path d="M33.013 12.281c0 1.33-3.588 2.407-8.014 2.407s-8.015-1.077-8.015-2.407 3.589-2.407 8.015-2.407 8.014 1.077 8.014 2.407" class="msportalfx-svg-c19" fill="#0072c6"></path><path opacity=".25" d="M43.071 6.549c-3.502-1.327-8.104-2.269-13.279-2.633L26.548 9.92c1.596.094 3.023.329 4.127.662l12.396-4.033zM5.902 18.642c3.601 1.543 8.598 2.643 14.288 3.045l3.793-7.02c-1.579-.06-3.014-.257-4.168-.552L5.902 18.642z" class="msportalfx-svg-c01" fill="#ffffff"></path></g></svg>