<svg viewBox="0 0 50 50" class="" role="presentation" focusable="false" xmlns:svg="http://www.w3.org/2000/svg" xmlns:xlink="http://www.w3.org/1999/xlink" id="FxSymbol0-022"><g><title></title><path d="M38.2.6c-.4-.5-1.1-.6-1.1-.6H10.4c-4 0-4 3.3-4 3.3V8h3.1c1.6 0 3 1.3 3 3 0 1.6-1.3 3-3 3H6.4v4.3h3.1c1.6 0 3 1.3 3 3 0 1.6-1.3 3-3 3H6.4v4.3h3.1c1.6 0 3 1.3 3 3 0 1.6-1.3 3-3 3H6.4V38c0 .8.6 1.4 1.4 1.4h12.3V22.6c0-4.3 5.9-7.3 14.3-7.3V4.8c0-.8 0-.9-.8-.9H9.2c-.1-1.6 1.5-2 1.5-2h24.4c1.5 0 1.5 1.3 1.5 1.3v12.1c.6 0 1.1.1 1.6.1h.2V1.3c0-.2-.1-.5-.2-.7z" class="msportalfx-svg-c15" fill="#59b4d9"></path><path d="M34.7 17.8c-7.1 0-12 2.3-12 4.8v22.7c.4 2.4 5.4 4.7 12.2 4.7 7 0 11.5-2.2 11.6-4.7V22.8c0-2.5-4.7-5-11.8-5zm.2 7c-5.1 0-9.2-1.2-9.2-2.6 0-1.5 4.1-2.6 9.2-2.6s8.5 1.2 8.5 2.7c0 1.4-3.5 2.5-8.5 2.5zm-24-3.6c0 .8-.6 1.4-1.4 1.4H4.9c-.8 0-1.4-.6-1.4-1.4 0-.8.6-1.4 1.4-1.4h4.6c.8-.1 1.4.6 1.4 1.4zm0-10.3c0 .8-.6 1.4-1.4 1.4H4.9c-.8 0-1.4-.6-1.4-1.4 0-.8.6-1.4 1.4-1.4h4.6c.8 0 1.4.7 1.4 1.4zm0 20.5c0 .8-.6 1.4-1.4 1.4H4.9c-.8 0-1.4-.6-1.4-1.4 0-.8.6-1.4 1.4-1.4h4.6c.8 0 1.4.6 1.4 1.4z" class="msportalfx-svg-c15" fill="#59b4d9"></path></g></svg>