<svg viewBox="0 0 50 50" class="" role="presentation" focusable="false" xmlns:svg="http://www.w3.org/2000/svg" xmlns:xlink="http://www.w3.org/1999/xlink" id="FxSymbol0-0b7" data-type="1"><g><title></title><path d="M.8 0C.3 0 0 .3 0 .8v10c0 .5.3.8.8.8h5c.5 0 .8-.3.8-.8V6.7h36.7v4.2c0 .5.3.8 1 .8h4.8c.5 0 .8-.3.8-.8V.9c.1-.6-.2-.9-.7-.9H.8zm48.4 50c.5 0 .8-.3.8-.8v-9.8c0-.5-.3-.8-.8-.8h-4.8c-.5 0-.8.3-.8.8v4H6.7v-4.2c0-.5-.3-.8-1-.8H.8c-.5 0-.8.3-.8 1v9.8c0 .5.3.8.8.8h48.4z"></path><path d="M23.99 17.33l2.12-1.325 10.44 16.706-2.12 1.325z" class="msportalfx-svg-c19" fill="#0072c6"></path><path d="M13.8 32.698l10.44-16.706 2.12 1.325-10.44 16.705z" class="msportalfx-svg-c19" fill="#0072c6"></path><circle cx="25" cy="16.7" r="5.4" class="msportalfx-svg-c13" fill="#b8d432"></circle><g class="msportalfx-svg-c15" fill="#59b4d9"><circle cx="14.6" cy="33.3" r="5.4"></circle><circle cx="35.4" cy="33.3" r="5.4"></circle></g></g><defs>
</defs>
</svg>