<svg viewBox="0 0 50 50" class="" role="presentation" focusable="false" xmlns:svg="http://www.w3.org/2000/svg" xmlns:xlink="http://www.w3.org/1999/xlink" id="FxSymbol0-021"><g><title></title><path d="M50 37.571a3.57 3.57 0 0 1-3.571 3.571H3.571A3.57 3.57 0 0 1 0 37.571v-30A3.571 3.571 0 0 1 3.571 4h42.857A3.571 3.571 0 0 1 50 7.571v30z" class="msportalfx-svg-c11" fill="#fcd116"></path><path d="M4.286 8.286h41.429v28.571H4.286z" class="msportalfx-svg-c01" fill="#ffffff"></path><circle cx="12.143" cy="30.429" r="5.714" class="msportalfx-svg-c09" fill="#dd5900"></circle><circle cx="12.143" cy="30.429" r="4.286" class="msportalfx-svg-c10" fill="#ff8c00"></circle><path d="M12.143 34.714a6.4 6.4 0 0 1-4.317-1.679l-.678 13.031 4.923-4.923 5 5 .072-.714-.683-12.394a6.395 6.395 0 0 1-4.317 1.679z" class="msportalfx-svg-c09" fill="#dd5900"></path><path d="M40.962 29.085a.8.8 0 0 1-.799.799H22.227a.8.8 0 0 1 0-1.598h17.936a.8.8 0 0 1 .799.799m0-4.371a.8.8 0 0 1-.799.799H22.227a.8.8 0 0 1 0-1.598h17.936a.8.8 0 0 1 .799.799m0-6.428a.8.8 0 0 1-.799.799H10.084a.8.8 0 0 1 0-1.598h30.078c.442-.001.8.357.8.799" class="msportalfx-svg-c04" fill="#7a7a7a"></path></g></svg>